<svg width="26" height="27" viewBox="0 0 26 27" fill="none" xmlns="http://www.w3.org/2000/svg">
<path d="M3.77944 5.79033C6.92656 5.64183 10.0723 5.48788 13.2208 5.37616C14.6826 5.32439 16.1445 5.27943 17.6063 5.26036C19.0028 5.24265 20.515 5.06009 21.827 5.65C26.3269 7.67587 24.4291 15.8161 21.3188 18.233C19.1513 19.9169 15.6853 20.0423 13.0546 19.9741C10.6132 19.9128 7.66769 19.6335 5.61322 18.1703C2.07237 15.6486 3.92249 8.77668 3.80669 4.07781C3.87617 1.4484 1.02197 1.02197 1.02197 1.02197" stroke="white" stroke-width="2.04358" stroke-linecap="round" stroke-linejoin="round"/>
<path d="M13.9648 10.5586H17.7427" stroke="white" stroke-width="2.04358" stroke-linecap="round" stroke-linejoin="round"/>
<path fill-rule="evenodd" clip-rule="evenodd" d="M6.15022 23.6742C6.55893 23.6742 6.89135 24.0066 6.89135 24.4153C6.89135 24.8254 6.55893 25.1578 6.15022 25.1578C5.74014 25.1578 5.40771 24.8254 5.40771 24.4153C5.40771 24.0066 5.74014 23.6742 6.15022 23.6742Z" fill="black"/>
<path fill-rule="evenodd" clip-rule="evenodd" d="M6.15022 23.6742C6.55893 23.6742 6.89135 24.0066 6.89135 24.4153C6.89135 24.8254 6.55893 25.1578 6.15022 25.1578C5.74014 25.1578 5.40771 24.8254 5.40771 24.4153C5.40771 24.0066 5.74014 23.6742 6.15022 23.6742Z" stroke="white" stroke-width="2.04358" stroke-linecap="round" stroke-linejoin="round"/>
<path fill-rule="evenodd" clip-rule="evenodd" d="M20.225 23.6742C20.6351 23.6742 20.9675 24.0066 20.9675 24.4153C20.9675 24.8254 20.6351 25.1578 20.225 25.1578C19.8163 25.1578 19.4839 24.8254 19.4839 24.4153C19.4839 24.0066 19.8163 23.6742 20.225 23.6742Z" fill="black"/>
<path fill-rule="evenodd" clip-rule="evenodd" d="M20.225 23.6742C20.6351 23.6742 20.9675 24.0066 20.9675 24.4153C20.9675 24.8254 20.6351 25.1578 20.225 25.1578C19.8163 25.1578 19.4839 24.8254 19.4839 24.4153C19.4839 24.0066 19.8163 23.6742 20.225 23.6742Z" stroke="white" stroke-width="2.04358" stroke-linecap="round" stroke-linejoin="round"/>
</svg>
