<svg width="32" height="32" viewBox="0 0 32 32" fill="none" xmlns="http://www.w3.org/2000/svg">
<path d="M17.6267 22.5434C17.8347 22.6858 18.0699 22.753 18.3035 22.753C18.6859 22.753 19.0635 22.5706 19.2955 22.2314C19.6699 21.6842 19.5307 20.937 18.9835 20.5626C16.4411 18.8234 14.0731 16.6682 13.9179 16.0506C14.0731 15.3354 16.4411 13.1802 18.9835 11.4362C19.5307 11.0618 19.6699 10.3162 19.2939 9.76903C18.9243 9.22343 18.1771 9.08423 17.6267 9.45543C15.3451 11.0202 11.5211 13.9482 11.5211 16.001C11.5211 18.0554 15.3467 20.9818 17.6267 22.5434Z" fill="white"/>
<path fill-rule="evenodd" clip-rule="evenodd" d="M0 16C0 27.8128 4.1872 32 16 32C27.8128 32 32 27.8128 32 16C32 4.1872 27.8128 0 16 0C4.1872 0 0 4.1872 0 16ZM2.4 16C2.4 5.5776 5.5776 2.4 16 2.4C26.4224 2.4 29.6 5.5776 29.6 16C29.6 26.4224 26.4224 29.6 16 29.6C5.5776 29.6 2.4 26.4224 2.4 16Z" fill="white"/>
</svg>
