<svg width="41" height="41" viewBox="0 0 41 41" fill="none" xmlns="http://www.w3.org/2000/svg">
<circle cx="20.5" cy="20.5" r="20.5" fill="#5500FF"/>
<path fill-rule="evenodd" clip-rule="evenodd" d="M18.3638 24.4292C18.6309 24.6951 18.9602 24.7933 19.3081 24.7933C19.7578 24.7933 20.2411 24.6305 20.6636 24.4553C21.6575 24.0428 26.2955 21.4921 26.2955 19.7006C26.2955 17.9363 21.7569 15.4341 20.5965 14.9557C20.1268 14.7594 19.0285 14.3072 18.3638 14.9706C18.1742 15.1615 17.5997 15.7398 17.5836 19.6732C17.5674 23.6328 18.1673 24.2327 18.3638 24.4292ZM19.651 22.86C19.3776 21.5754 19.3814 17.9351 19.6547 16.5721C20.8946 17.0008 23.7249 18.8669 24.3598 19.7043C23.7224 20.5703 20.8561 22.4749 19.651 22.86Z" fill="white"/>
<path fill-rule="evenodd" clip-rule="evenodd" d="M8.69702 19.8788C8.69702 29.0516 11.9484 32.303 21.1213 32.303C30.2941 32.303 33.5455 29.0516 33.5455 19.8788C33.5455 10.706 30.2941 7.45453 21.1213 7.45453C11.9484 7.45453 8.69702 10.706 8.69702 19.8788ZM10.5607 19.8788C10.5607 11.7856 13.0281 9.31817 21.1213 9.31817C29.2144 9.31817 31.6819 11.7856 31.6819 19.8788C31.6819 27.9719 29.2144 30.4394 21.1213 30.4394C13.0281 30.4394 10.5607 27.9719 10.5607 19.8788Z" fill="white"/>
</svg>
