<svg width="102" height="102" viewBox="0 0 102 102" fill="none" xmlns="http://www.w3.org/2000/svg">
<path d="M38.25 63.75L46.75 72.25L63.75 55.25M55.25 12.7537C54.8441 12.75 54.3884 12.75 53.8675 12.75H34.8508C30.0904 12.75 27.7084 12.75 25.8901 13.6764C24.2908 14.4914 22.9914 15.7908 22.1764 17.3901C21.25 19.2084 21.25 21.5904 21.25 26.3508V75.6508C21.25 80.4113 21.25 82.7903 22.1764 84.6085C22.9914 86.2079 24.2908 87.5095 25.8901 88.3245C27.7066 89.25 30.0858 89.25 34.837 89.25L67.1631 89.25C71.9143 89.25 74.29 89.25 76.1064 88.3245C77.7058 87.5095 79.0095 86.2079 79.8245 84.6085C80.75 82.792 80.75 80.4163 80.75 75.6652V39.6342C80.75 39.1126 80.7499 38.6563 80.746 38.25M55.25 12.7537C56.464 12.7647 57.2319 12.8088 57.9651 12.9849C58.8324 13.1931 59.6609 13.5374 60.4214 14.0034C61.2789 14.5289 62.0152 15.2652 63.4844 16.7344L76.7677 30.0177C78.2378 31.4878 78.9687 32.2208 79.4944 33.0786C79.9604 33.8391 80.3052 34.6683 80.5134 35.5356C80.6894 36.2685 80.7345 37.0367 80.746 38.25M55.25 12.7537V24.65C55.25 29.4104 55.25 31.789 56.1764 33.6073C56.9914 35.2066 58.2908 36.5095 59.8901 37.3245C61.7066 38.25 64.0857 38.25 68.8369 38.25H80.746M80.746 38.25H80.7508" stroke="white" stroke-width="6" stroke-linecap="round" stroke-linejoin="round"/>
</svg>
