<svg width="41" height="41" viewBox="0 0 41 41" fill="none" xmlns="http://www.w3.org/2000/svg">
<circle cx="20.5" cy="20.5" r="20.5" fill="#5500FF"/>
<path d="M21.1213 32.303C11.9484 32.303 8.69702 29.0516 8.69702 19.8788C8.69702 10.706 11.9484 7.45453 21.1213 7.45453C21.6356 7.45453 22.0531 7.87198 22.0531 8.38635C22.0531 8.90071 21.6356 9.31817 21.1213 9.31817C13.0281 9.31817 10.5607 11.7856 10.5607 19.8788C10.5607 27.9719 13.0281 30.4394 21.1213 30.4394C29.2144 30.4394 31.6819 27.9719 31.6819 19.8788C31.6819 19.3644 32.0993 18.947 32.6137 18.947C33.1281 18.947 33.5455 19.3644 33.5455 19.8788C33.5455 29.0516 30.2941 32.303 21.1213 32.303Z" fill="white"/>
<path fill-rule="evenodd" clip-rule="evenodd" d="M30.1121 16.631L31.4274 15.1459C32.8587 13.5295 32.7071 11.0508 31.092 9.61833C30.3092 8.92506 29.2979 8.57718 28.2592 8.64179C27.2156 8.70515 26.2589 9.1723 25.5657 9.95503L18.2552 18.2147C15.9891 20.7716 17.5396 24.1522 17.6067 24.2951C17.7173 24.5299 17.921 24.7088 18.1683 24.7858C18.2391 24.8095 19.0641 25.0617 20.1512 25.0617C21.375 25.0617 22.9317 24.7399 24.1145 23.403L29.9145 16.8542C29.9527 16.8228 29.9889 16.7879 30.0227 16.7496C30.0561 16.7119 30.0859 16.6722 30.1121 16.631ZM19.1436 23.1036C19.9226 23.2452 21.6421 23.3844 22.7193 22.1681L28.0006 16.2048L24.9301 13.4852L19.6517 19.4509C18.5484 20.6945 18.9001 22.3532 19.1436 23.1036ZM26.165 12.0896L29.237 14.8088L30.0322 13.9109C30.7814 13.0636 30.7031 11.764 29.857 11.0148C29.4457 10.652 28.9128 10.4669 28.3723 10.5017C27.8256 10.5365 27.3249 10.78 26.9609 11.19L26.165 12.0896Z" fill="white"/>
</svg>
