<svg width="41" height="41" viewBox="0 0 41 41" fill="none" xmlns="http://www.w3.org/2000/svg">
<circle cx="20.5" cy="20.5" r="20.5" fill="#5500FF"/>
<path fill-rule="evenodd" clip-rule="evenodd" d="M17.1914 19.0022C15.4706 19.0022 14.0717 17.6044 14.0717 15.8837C14.0717 14.1629 15.4706 12.764 17.1914 12.764C18.9121 12.764 20.3111 14.1629 20.3111 15.8837C20.3111 17.6044 18.9121 19.0022 17.1914 19.0022ZM17.1914 14.6276C16.4981 14.6276 15.9353 15.1904 15.9353 15.8837C15.9353 16.5757 16.4981 17.1385 17.1914 17.1385C17.8847 17.1385 18.4475 16.5757 18.4475 15.8837C18.4475 15.1904 17.8847 14.6276 17.1914 14.6276Z" fill="white"/>
<path fill-rule="evenodd" clip-rule="evenodd" d="M33.3803 23.1135C33.4923 22.1284 33.5455 21.052 33.5455 19.8788C33.5455 10.706 30.2941 7.45453 21.1213 7.45453C11.9484 7.45453 8.69702 10.706 8.69702 19.8788C8.69702 29.0516 11.9484 32.303 21.1213 32.303C28.9673 32.303 32.481 29.9242 33.3333 23.4957C33.3755 23.3724 33.3912 23.242 33.3803 23.1135ZM21.1213 9.31817C13.0281 9.31817 10.5607 11.7856 10.5607 19.8788C10.5607 22.7844 10.8787 24.9648 11.6609 26.5663C12.3527 25.3614 13.4633 23.7781 14.7946 23.1525C16.1874 22.5003 17.3055 22.9016 18.3877 23.2905L18.3909 23.2916C19.1913 23.5795 20.0181 23.8769 21.1571 23.8769C22.0367 23.8769 22.5411 23.0917 23.2903 21.8107C24.0594 20.495 25.016 18.86 26.9654 18.86C29.0928 18.86 30.5801 19.9221 31.6652 20.982C31.6764 20.6264 31.6819 20.2588 31.6819 19.8788C31.6819 11.7856 29.2144 9.31817 21.1213 9.31817ZM31.4585 23.4928C31.3924 23.4198 31.3247 23.3443 31.2552 23.2667L31.2408 23.2506C30.2298 22.1242 28.9729 20.7236 26.9654 20.7236C26.1268 20.7236 25.6348 21.4939 24.8992 22.7512C24.1203 24.083 23.1509 25.7405 21.1571 25.7405C19.693 25.7405 18.6217 25.3552 17.7588 25.0448L17.7553 25.0435C16.7315 24.6733 16.2507 24.5254 15.5885 24.8385C14.598 25.3041 13.4972 27.0012 12.8676 28.2546C14.5008 29.8378 17.1253 30.4394 21.1213 30.4394C27.8563 30.4394 30.6953 28.7306 31.4585 23.4928Z" fill="white"/>
</svg>
