<svg width="41" height="41" viewBox="0 0 41 41" fill="none" xmlns="http://www.w3.org/2000/svg">
<circle cx="20.5" cy="20.5" r="20.5" fill="#5500FF"/>
<path d="M19.2923 26.8683H12.0083" stroke="white" stroke-width="1.68807" stroke-linecap="round" stroke-linejoin="round"/>
<path fill-rule="evenodd" clip-rule="evenodd" d="M23.863 26.8692C23.863 29.167 24.6293 29.9322 26.9261 29.9322C29.2229 29.9322 29.9891 29.167 29.9891 26.8692C29.9891 24.5714 29.2229 23.8062 26.9261 23.8062C24.6293 23.8062 23.863 24.5714 23.863 26.8692Z" stroke="white" stroke-width="1.68807" stroke-linecap="round" stroke-linejoin="round"/>
<path d="M22.7058 15.0646H29.9888" stroke="white" stroke-width="1.68807" stroke-linecap="round" stroke-linejoin="round"/>
<path fill-rule="evenodd" clip-rule="evenodd" d="M18.1354 15.063C18.1354 12.7663 17.3691 12 15.0723 12C12.7746 12 12.0083 12.7663 12.0083 15.063C12.0083 17.3608 12.7746 18.1261 15.0723 18.1261C17.3691 18.1261 18.1354 17.3608 18.1354 15.063Z" stroke="white" stroke-width="1.68807" stroke-linecap="round" stroke-linejoin="round"/>
</svg>
