<svg width="41" height="41" viewBox="0 0 41 41" fill="none" xmlns="http://www.w3.org/2000/svg">
<circle cx="20.5" cy="20.5" r="20.5" fill="#5500FF"/>
<path fill-rule="evenodd" clip-rule="evenodd" d="M18.1774 24.6534C18.4692 24.8541 18.761 24.9288 19.0364 24.9288C19.5885 24.9288 20.0787 24.6324 20.3903 24.4433C20.5303 24.3569 20.7661 24.2146 20.8315 24.2029C20.9152 24.2142 21.1395 24.3496 21.2818 24.4355L21.2948 24.4433C21.7617 24.7281 22.6312 25.2556 23.5077 24.6522C24.4375 24.0087 24.1502 22.973 24.0108 22.4706L24.0096 22.4662C23.9664 22.3121 23.901 22.0799 23.8859 22.067C23.9279 22.0017 24.1123 21.8628 24.2348 21.7706C24.6597 21.4496 25.4509 20.8518 25.1907 19.8343C24.9118 18.7477 23.7972 18.6975 23.1984 18.6707L23.1872 18.6702C23.0226 18.6632 22.7798 18.6528 22.7958 18.6882C22.7386 18.6251 22.6382 18.3917 22.5717 18.2365L22.5708 18.2345C22.3418 17.7053 21.9167 16.7227 20.842 16.7227C19.7647 16.7227 19.3399 17.7078 19.1123 18.2377C19.1048 18.2547 19.0969 18.2728 19.0888 18.2915C19.0373 18.4095 18.9747 18.553 18.9244 18.6356C18.8269 18.6535 18.66 18.6619 18.5289 18.6685C18.5139 18.6692 18.4994 18.6699 18.4855 18.6707C17.8868 18.6975 16.7722 18.7477 16.4921 19.8355C16.233 20.8518 17.0239 21.4494 17.4488 21.7704C17.4565 21.7761 17.4646 21.7822 17.4727 21.7883C17.5928 21.8784 17.7539 21.9993 17.7736 21.9993C17.7817 22.0792 17.7186 22.3083 17.6754 22.4624L17.6744 22.4662L17.6731 22.4706C17.5338 22.973 17.2465 24.0087 18.1774 24.6534ZM22.2017 22.9459C21.8387 22.7253 21.387 22.4522 20.842 22.4522C20.2969 22.4522 19.8452 22.7253 19.4823 22.9459C19.4742 22.9508 19.4658 22.9558 19.4573 22.961C19.4191 22.9842 19.377 23.0098 19.334 23.0346L19.3609 22.9377C19.4659 22.5619 19.5966 22.0939 19.4788 21.6013C19.3422 21.0329 18.908 20.6793 18.5649 20.419C19.0528 20.3969 19.6585 20.3688 20.0985 19.9533C20.4043 19.6627 20.5724 19.2741 20.7194 18.9309C20.7533 18.8527 20.7976 18.7512 20.842 18.6578C20.8803 18.7385 20.9178 18.8253 20.9491 18.8979C20.954 18.9093 20.9588 18.9203 20.9634 18.9309C21.1116 19.2741 21.2796 19.6627 21.5878 19.9557C22.0254 20.3688 22.6312 20.3969 23.1179 20.419C22.7759 20.6793 22.3406 21.0341 22.204 21.6025C22.0873 22.0939 22.218 22.5619 22.3231 22.9377L22.3499 23.0346C22.307 23.0098 22.2648 22.9842 22.2266 22.961C22.2181 22.9558 22.2098 22.9508 22.2017 22.9459Z" fill="white"/>
<path fill-rule="evenodd" clip-rule="evenodd" d="M9 23.2272C9 29.4888 9.57306 31.6539 20.8406 31.6539C32.1081 31.6539 32.6812 29.4888 32.6812 23.2272C32.6812 22.744 32.289 22.3518 31.8058 22.3518C30.7332 22.3518 30.3516 21.5301 30.3516 20.8264C30.3516 20.1226 30.7332 19.3009 31.8058 19.3009C32.289 19.3009 32.6812 18.9087 32.6812 18.4256C32.6812 12.165 32.1081 10 20.8406 10C9.57306 10 9 12.165 9 18.4256C9 18.9087 9.39216 19.3009 9.87535 19.3009C10.9479 19.3009 11.3296 20.1226 11.3296 20.8264C11.3296 21.5301 10.9479 22.3518 9.87535 22.3518C9.39216 22.3518 9 22.744 9 23.2272ZM20.8406 29.9032C11.2491 29.9032 10.7752 28.7442 10.7519 23.9975C12.2843 23.6088 13.0803 22.2106 13.0803 20.8264C13.0803 19.441 12.2843 18.0427 10.7519 17.6541C10.7752 12.9085 11.2491 11.7507 20.8406 11.7507C30.4321 11.7507 30.906 12.9085 30.9293 17.6541C29.3969 18.0427 28.6009 19.441 28.6009 20.8264C28.6009 22.2106 29.3969 23.6088 30.9293 23.9975C30.906 28.7442 30.4321 29.9032 20.8406 29.9032Z" fill="white"/>
</svg>
